# Blender v2.79 (sub 0) OBJ File: 'Rock_Big.blend'
# www.blender.org
mtllib ey1.mtl.mtl
o Mossy_Rock_3
v -0.210917 2.531003 0.394514
v 1.038831 1.843641 -0.550213
v -0.596432 1.918302 -1.086562
v -1.335052 1.749056 0.192781
v -0.782104 1.661490 1.706208
v 0.616997 1.703730 0.681437
v 0.632739 0.531414 -1.373929
v -1.117147 0.531075 -0.775938
v -1.017274 0.222895 0.707795
v 0.177905 -0.056022 1.309761
v 1.262318 0.326610 -0.098632
v -0.120258 -0.040474 -0.177239
v -0.318310 2.456630 -0.427319
v 0.461859 2.496900 -0.095477
v 0.352262 1.930857 -0.865238
v 0.148612 2.167609 0.726436
v 0.941645 1.927376 0.094264
v -0.874452 2.259294 0.291731
v -1.244028 1.980225 -0.677371
v -0.604205 2.236187 1.224459
v -1.215251 1.764015 1.090181
v -0.030600 1.820379 1.583752
v 1.325425 1.022031 0.430240
v 1.469758 1.147516 -0.460905
v 1.156524 1.117241 -1.197180
v 0.043363 1.219678 -1.299047
v -1.088785 1.234694 -1.187804
v -1.446109 1.138921 -0.421283
v -1.387902 1.009192 0.572419
v -1.015521 0.865761 1.400699
v -0.284517 0.700951 1.767318
v 0.624382 0.824848 1.169215
v 1.317031 0.334290 -1.063317
v -0.411065 0.413591 -1.142303
v -1.212568 0.341258 -0.057384
v -0.430848 -0.022026 0.986466
v 0.791522 0.047762 0.654358
v 0.707412 -0.048271 -0.194999
v 0.268141 -0.113167 -0.952203
v -0.993439 -0.018316 -0.628191
v -0.644242 -0.011315 0.281266
v 0.075182 -0.143679 0.606002
v -0.242440 2.567697 -0.029001
v -0.469569 2.243936 -0.795246
v 0.134021 2.570094 0.150542
v 0.747626 2.238051 -0.320025
v 0.741448 1.893548 -0.738782
v -0.101100 1.955750 -0.970691
v -0.007199 2.380480 0.630136
v 0.309704 1.955834 0.731933
v 1.056046 1.976886 -0.192271
v 0.767036 1.813562 0.363792
v -0.555249 2.453271 0.350933
v -1.148356 2.033928 0.231215
v -1.306475 1.891503 -0.286632
v -1.014538 1.995373 -0.949122
v -0.415639 2.386384 0.817319
v -0.738912 2.021831 1.546697
v -1.295273 1.768305 0.658157
v -1.051591 1.734727 1.462914
v -0.418281 1.791488 1.741634
v 0.270871 1.769600 1.154244
v 1.102432 1.416018 0.551298
v 1.317837 0.633836 0.222152
v 1.319153 1.523041 -0.537788
v 1.457026 0.711505 -0.301081
v 1.160309 1.465313 -0.912034
v 0.966810 0.817277 -1.354178
v -0.315960 1.581965 -1.210082
v 0.363199 0.862566 -1.369875
v -0.915055 1.603271 -1.215365
v -1.101955 0.842037 -1.012622
v -1.429011 1.485977 -0.134310
v -1.304491 0.803537 -0.627539
v -1.245260 0.583881 0.652461
v -1.409329 1.413520 0.424035
v -1.029645 0.452525 1.078217
v -0.937262 1.291694 1.610224
v -0.046193 0.129447 1.603602
v -0.537178 1.270228 1.786636
v 0.428450 0.218800 1.376638
v 0.733681 1.358283 0.902388
v 1.050564 0.428070 -1.332717
v 1.359808 0.294386 -0.573746
v -0.830930 0.460830 -1.007820
v 0.105501 0.430258 -1.269270
v -1.127178 0.273020 0.324615
v -1.224596 0.428466 -0.432005
v -0.738909 0.064222 0.876212
v -0.152035 -0.104962 1.243703
v 0.525415 -0.027184 0.993151
v 1.003784 0.206882 0.293599
v 1.023925 0.072859 -0.157047
v 0.325685 -0.073538 -0.178560
v 0.495741 0.145168 -1.256131
v 0.026585 -0.111744 -0.544157
v -1.110460 0.230463 -0.728295
v -0.600218 -0.090124 -0.427969
v -0.826139 0.045870 0.500469
v -0.429095 -0.022304 0.043498
v 0.164699 -0.155131 0.973648
v 0.006015 -0.046073 0.214389
v 0.001538 2.303675 -0.669135
v 0.086392 2.560101 -0.262708
v 0.418411 2.297045 -0.506768
v 0.749165 2.259280 0.010570
v 0.335482 2.383737 0.313478
v 0.519824 2.091385 0.354958
v -1.038459 2.170731 -0.234360
v -0.620187 2.412775 -0.107685
v -0.810532 2.259934 -0.608922
v -0.965512 2.052465 1.219716
v -0.761218 2.301511 0.776697
v -1.090989 2.045724 0.718858
v 0.051687 2.023046 1.200113
v -0.187103 2.230645 1.080518
v -0.339485 2.075603 1.519398
v 1.261113 1.595877 -0.129584
v 1.144912 1.540079 0.231383
v 1.373239 1.088513 0.029358
v 0.235750 1.567122 -1.144694
v 0.791822 1.504120 -1.065488
v 0.647043 1.144118 -1.308777
v -1.458481 1.606735 -0.599654
v -1.317536 1.646759 -1.030941
v -1.393327 1.192698 -0.890037
v -1.192515 1.382622 1.324051
v -1.357407 1.422726 0.868640
v -1.259278 0.945487 1.015131
v 0.289962 1.383903 1.387054
v -0.142033 1.362990 1.764670
v 0.128562 0.693095 1.643841
v 1.348037 0.740414 -1.204076
v 1.423962 1.144244 -0.905257
v 1.502984 0.701278 -0.777572
v -0.709614 0.803450 -1.186453
v -0.566407 1.261107 -1.287285
v -0.166271 0.826018 -1.295774
v -1.312828 0.615064 0.239898
v -1.410940 1.077754 0.097101
v -1.315428 0.702357 -0.212619
v -0.376588 0.133058 1.462099
v -0.667598 0.772584 1.667019
v -0.725807 0.251713 1.275943
v 1.167740 0.493514 0.567314
v 1.153034 0.956890 0.776001
v 0.840384 0.335411 0.969411
v 0.878414 0.057947 -1.163631
v 1.103807 0.034408 -0.695010
v 0.636186 -0.132132 -0.675715
v -0.764136 0.153246 -0.938975
v -0.140311 0.080517 -1.055602
v -0.460793 -0.072340 -0.760426
v -1.009550 0.081989 0.104852
v -1.183344 0.131493 -0.370103
v -0.880001 -0.051082 -0.191558
v -0.185239 -0.152841 0.890792
v -0.523843 -0.040842 0.644012
v -0.268340 -0.079072 0.469142
v 0.700647 -0.009910 0.248981
v 0.449406 -0.140033 0.655539
v 0.347943 -0.107581 0.232269
vt 0.195800 0.020256
vt 0.262018 0.020165
vt 0.243293 0.063839
vt 0.177075 0.063931
vt 0.129583 0.020347
vt 0.224567 0.107514
vt 0.619573 0.619679
vt 0.653742 0.701829
vt 0.590946 0.686436
vt 0.556777 0.604286
vt 0.585405 0.537529
vt 0.528150 0.671042
vt 0.496248 0.607171
vt 0.464346 0.543300
vt 0.524875 0.540415
vt 0.617176 0.762325
vt 0.554380 0.746931
vt 0.580610 0.822821
vt 0.458101 0.671016
vt 0.388051 0.670990
vt 0.426199 0.607145
vt 0.492270 0.753166
vt 0.422221 0.753140
vt 0.456390 0.835289
vt 0.399326 0.829011
vt 0.342262 0.822733
vt 0.365156 0.746862
vt 0.518500 0.829055
vt 0.060475 0.145095
vt 0.114068 0.174447
vt 0.064941 0.222128
vt 0.011348 0.192775
vt 0.006882 0.115742
vt 0.015815 0.269808
vt 0.068232 0.068045
vt 0.121825 0.097397
vt 0.169317 0.140981
vt 0.656673 0.793468
vt 0.659603 0.885107
vt 0.620107 0.853964
vt 0.836291 0.605510
vt 0.875123 0.673573
vt 0.812886 0.676814
vt 0.774054 0.608751
vt 0.797460 0.537447
vt 0.750649 0.680055
vt 0.867463 0.540844
vt 0.906295 0.608907
vt 0.937467 0.544241
vt 0.963155 0.617928
vt 0.988844 0.691614
vt 0.931983 0.682593
vt 0.598618 0.926348
vt 0.537632 0.967589
vt 0.559121 0.895205
vt 0.426962 0.901414
vt 0.397533 0.967539
vt 0.369897 0.895136
vt 0.497011 0.901439
vt 0.467582 0.967564
vt 0.712008 0.647031
vt 0.735413 0.575727
vt 0.673366 0.614007
vt 0.373385 0.604219
vt 0.358719 0.537447
vt 0.411533 0.540374
vt 0.403920 0.067694
vt 0.465344 0.020165
vt 0.457468 0.097193
vt 0.396044 0.144723
vt 0.342496 0.115223
vt 0.449593 0.174222
vt 0.400394 0.221768
vt 0.351195 0.269314
vt 0.346846 0.192269
vt 0.504893 0.140907
vt 0.512769 0.063878
vt 0.560194 0.107592
vt 0.295186 0.097159
vt 0.328354 0.174154
vt 0.276461 0.140834
vt 0.710567 0.175210
vt 0.742524 0.091467
vt 0.772913 0.156803
vt 0.740956 0.240546
vt 0.678610 0.258953
vt 0.803302 0.222139
vt 0.779113 0.299244
vt 0.754924 0.376349
vt 0.716767 0.317651
vt 0.833481 0.156773
vt 0.803091 0.091437
vt 0.863659 0.091408
vt 0.114140 0.269674
vt 0.114213 0.364900
vt 0.065014 0.317354
vt 0.175492 0.221976
vt 0.175564 0.317203
vt 0.236915 0.269506
vt 0.230865 0.350518
vt 0.224814 0.431531
vt 0.169513 0.398216
vt 0.230741 0.188510
vt 0.837075 0.753919
vt 0.799027 0.834265
vt 0.774838 0.757160
vt 0.907079 0.757316
vt 0.869032 0.837662
vt 0.939036 0.841058
vt 0.899210 0.903028
vt 0.859384 0.964997
vt 0.829206 0.899631
vt 0.963940 0.766336
vt 0.618087 0.222066
vt 0.572295 0.269617
vt 0.566244 0.188604
vt 0.612036 0.141053
vt 0.663878 0.174514
vt 0.663806 0.269741
vt 0.618015 0.317293
vt 0.663734 0.364968
vt 0.611840 0.398288
vt 0.559947 0.431608
vt 0.566121 0.350613
vt 0.712492 0.738754
vt 0.674335 0.797452
vt 0.673851 0.705729
vt 0.841350 0.302486
vt 0.879398 0.382832
vt 0.817161 0.379591
vt 0.873307 0.218743
vt 0.911354 0.299089
vt 0.943311 0.215346
vt 0.968215 0.290069
vt 0.993118 0.364791
vt 0.936258 0.373812
vt 0.903485 0.153377
vt 0.282707 0.317057
vt 0.328498 0.364608
vt 0.276656 0.398069
vt 0.282635 0.221830
vt 0.328426 0.269381
vt 0.716283 0.409374
vt 0.678126 0.350675
vt 0.677641 0.442398
vt 0.297375 0.604219
vt 0.282709 0.670990
vt 0.244561 0.607145
vt 0.259227 0.540374
vt 0.312041 0.537447
vt 0.206414 0.543300
vt 0.068540 0.471429
vt 0.007117 0.423899
vt 0.060665 0.394400
vt 0.122088 0.441929
vt 0.129964 0.518958
vt 0.177389 0.475244
vt 0.011466 0.346854
vt 0.630566 0.441963
vt 0.597398 0.518958
vt 0.578672 0.475283
vt 0.706292 0.881195
vt 0.736681 0.815859
vt 0.768638 0.899602
vt 0.738249 0.964938
vt 0.798816 0.964967
vt 0.449520 0.269449
vt 0.449448 0.364675
vt 0.400321 0.316995
vt 0.510944 0.221919
vt 0.510871 0.317146
vt 0.504697 0.398142
vt 0.840566 0.450895
vt 0.801735 0.518958
vt 0.778329 0.447653
vt 0.910570 0.447498
vt 0.871738 0.515561
vt 0.941742 0.512163
vt 0.050653 0.853964
vt 0.090150 0.822821
vt 0.111639 0.895205
vt 0.072142 0.926348
vt 0.011157 0.885107
vt 0.133128 0.967589
vt 0.967430 0.438477
vt 0.243798 0.901414
vt 0.214370 0.835289
vt 0.271434 0.829011
vt 0.300863 0.895136
vt 0.273227 0.967539
vt 0.328498 0.822733
vt 0.203178 0.967564
vt 0.173749 0.901439
vt 0.152260 0.829055
vt 0.739688 0.480678
vt 0.212659 0.671016
vt 0.142610 0.671042
vt 0.174512 0.607171
vt 0.248539 0.753140
vt 0.178490 0.753166
vt 0.116380 0.746932
vt 0.305604 0.746862
vt 0.531180 0.518866
vt 0.464963 0.518775
vt 0.512455 0.475192
vt 0.051187 0.619679
vt 0.085355 0.537529
vt 0.113983 0.604286
vt 0.079814 0.686436
vt 0.017018 0.701829
vt 0.053584 0.762325
vt 0.145885 0.540415
vt 0.395855 0.394028
vt 0.342262 0.423380
vt 0.346728 0.346347
vt 0.457205 0.441725
vt 0.403612 0.471078
vt 0.014087 0.793468
vn 0.1507 0.7439 -0.6511
vn 0.2470 0.6062 -0.7560
vn 0.1631 0.5638 -0.8096
vn -0.0466 0.7817 -0.6219
vn -0.1570 0.9210 -0.3565
vn -0.0022 0.5441 -0.8390
vn 0.1061 0.9446 -0.3106
vn 0.3369 0.7449 -0.5758
vn 0.4452 0.8947 -0.0360
vn 0.5650 0.7578 -0.3262
vn 0.6164 0.6646 -0.4223
vn 0.3835 0.6622 -0.6438
vn -0.1909 0.9796 -0.0616
vn 0.2164 0.9535 0.2096
vn -0.0269 0.9666 0.2549
vn 0.6588 0.6836 0.3140
vn 0.6890 0.5253 0.4993
vn 0.7836 0.6184 0.0599
vn 0.5328 0.6858 0.4958
vn 0.6202 0.5174 0.5895
vn 0.6340 0.6153 0.4684
vn 0.6715 0.5980 0.4374
vn 0.6078 0.6225 0.4930
vn 0.5902 0.6009 0.5390
vn 0.3752 0.8032 0.4628
vn -0.6030 0.7976 -0.0161
vn -0.7058 0.6742 -0.2174
vn -0.8478 0.5276 0.0534
vn -0.7451 0.6634 0.0683
vn -0.5762 0.8161 0.0435
vn -0.9162 0.3947 0.0686
vn -0.4173 0.9054 -0.0783
vn -0.3689 0.8802 -0.2984
vn -0.3651 0.6872 -0.6280
vn -0.3750 0.9229 0.0871
vn -0.6355 0.6982 0.3295
vn -0.8756 0.3884 0.2870
vn -0.7457 0.3088 0.5904
vn -0.3509 0.6604 0.6638
vn -0.1668 0.9108 0.3777
vn -0.4140 0.1988 0.8883
vn -0.4563 0.8737 0.1683
vn -0.7242 0.6793 0.1184
vn -0.9009 0.4187 0.1146
vn -0.0406 0.9491 0.3122
vn 0.6138 0.6774 0.4052
vn 0.5579 0.4501 0.6973
vn 0.7295 0.5086 0.4574
vn 0.3373 0.8514 0.4017
vn 0.1994 0.7628 0.6151
vn 0.0557 0.3687 0.9279
vn 0.8824 0.4182 0.2155
vn 0.9768 0.2062 0.0579
vn 0.8455 0.5065 -0.1692
vn 0.7924 0.4994 0.3503
vn 0.9640 0.1608 0.2117
vn 0.9448 0.1162 0.3063
vn 0.9259 -0.2885 0.2437
vn 0.8063 -0.5409 0.2391
vn 0.9729 -0.1516 0.1746
vn 0.7082 0.5140 0.4839
vn 0.1380 0.4747 -0.8692
vn -0.0002 0.2118 -0.9773
vn 0.0714 0.3526 -0.9330
vn 0.2682 0.5687 -0.7776
vn 0.1153 0.3453 -0.9313
vn 0.4467 0.4141 -0.7931
vn 0.2156 0.1386 -0.9666
vn -0.0273 -0.1382 -0.9900
vn -0.0627 0.0395 -0.9972
vn 0.5528 0.6026 -0.5755
vn -0.9699 0.2256 -0.0910
vn -0.9853 -0.1668 -0.0365
vn -0.9876 0.1415 0.0680
vn -0.7141 0.2923 -0.6360
vn -0.8747 -0.2049 -0.4392
vn -0.4475 -0.1313 -0.8846
vn -0.6169 -0.3790 -0.6897
vn -0.7943 -0.2789 -0.5396
vn -0.8958 -0.3516 -0.2719
vn -0.2058 0.2788 -0.9380
vn -0.8657 -0.0111 0.5005
vn -0.7353 -0.3044 0.6055
vn -0.6135 -0.0880 0.7848
vn -0.9698 0.0818 0.2296
vn -0.9042 -0.2325 0.3582
vn -0.9780 -0.1556 0.1388
vn -0.8960 -0.3904 0.2114
vn -0.7120 -0.6631 0.2310
vn -0.7602 -0.4908 0.4256
vn -0.9911 0.1093 0.0751
vn 0.7032 0.2285 0.6732
vn 0.6592 0.0923 0.7463
vn 0.6321 0.4083 0.6586
vn 0.3562 0.1005 0.9290
vn 0.4994 -0.0352 0.8656
vn -0.0321 -0.2130 0.9765
vn 0.0665 -0.5351 0.8422
vn 0.2929 -0.8119 0.5048
vn 0.6152 -0.3300 0.7159
vn -0.1797 -0.0247 0.9834
vn 0.7262 0.0203 -0.6871
vn 0.7559 -0.4971 -0.4259
vn 0.3385 -0.2839 -0.8971
vn 0.8579 0.3416 -0.3836
vn 0.9856 -0.1155 -0.1236
vn 0.8435 -0.5341 0.0569
vn -0.2811 -0.2591 -0.9240
vn -0.2367 -0.3242 -0.9159
vn -0.4630 -0.3116 -0.8298
vn -0.0909 0.0346 -0.9952
vn -0.1447 -0.1144 -0.9828
vn -0.1926 -0.2637 -0.9452
vn -0.9442 -0.3253 0.0507
vn -0.9171 -0.3915 0.0754
vn -0.7996 -0.5835 0.1419
vn -0.9916 -0.1268 0.0262
vn -0.9606 -0.2741 -0.0458
vn -0.9605 -0.2228 -0.1663
vn -0.4262 -0.6516 0.6275
vn -0.4165 -0.8759 0.2433
vn -0.2139 -0.9092 0.3572
vn -0.4614 -0.3048 0.8332
vn -0.5759 -0.6344 0.5155
vn -0.4743 -0.8373 0.2719
vn 0.8481 -0.4009 0.3463
vn 0.6397 -0.7405 0.2061
vn 0.6985 -0.6892 0.1926
vn 0.7615 0.0984 0.6406
vn 0.7329 -0.3322 0.5937
vn 0.5261 -0.7633 0.3750
vn 0.2881 -0.7541 -0.5901
vn -0.0553 -0.9163 -0.3965
vn -0.0708 -0.5167 -0.8532
vn 0.5358 -0.8423 -0.0578
vn 0.1735 -0.9839 -0.0417
vn 0.2374 -0.9671 0.0907
vn -0.0165 -0.9990 0.0419
vn -0.0334 -0.9943 0.1010
vn -0.0407 -0.9974 0.0591
vn 0.5361 -0.8263 0.1723
vn -0.3571 -0.5252 -0.7724
vn -0.4923 -0.8085 -0.3223
vn -0.7832 -0.3128 -0.5373
vn -0.2099 -0.5983 -0.7732
vn -0.1487 -0.9225 -0.3561
vn -0.0670 -0.9975 0.0219
vn -0.6061 -0.7745 0.1812
vn -0.1860 -0.9820 0.0323
vn -0.4500 -0.8872 0.1018
vn -0.8539 -0.5198 -0.0233
vn -0.3025 -0.9467 0.1101
vn -0.0225 -0.9993 0.0283
vn -0.2069 -0.9774 0.0440
vn -0.0540 -0.9916 -0.1176
vn 0.1275 -0.9810 0.1459
vn -0.2791 -0.9595 0.0378
vn -0.1250 -0.9841 -0.1263
vn -0.0955 -0.9890 -0.1133
vn 0.4159 -0.9079 0.0520
vn 0.2698 -0.9621 0.0393
vn 0.0395 -0.9951 -0.0901
usemtl Mossy_Rock
s 1
f 103/1/1 15/2/2 48/3/3
f 48/3/3 44/4/4 103/1/1
f 13/5/5 103/1/1 44/4/4
f 44/4/4 48/3/3 3/6/6
f 103/7/1 13/8/5 104/9/7
f 104/9/7 105/10/8 103/7/1
f 15/11/2 103/7/1 105/10/8
f 105/10/8 104/9/7 14/12/9
f 46/13/10 2/14/11 47/15/12
f 47/15/12 105/10/8 46/13/10
f 14/12/9 46/13/10 105/10/8
f 105/10/8 47/15/12 15/11/2
f 104/9/7 13/8/5 43/16/13
f 43/16/13 45/17/14 104/9/7
f 14/12/9 104/9/7 45/17/14
f 43/16/13 1/18/15 45/17/14
f 106/19/16 17/20/17 51/21/18
f 51/21/18 46/13/10 106/19/16
f 14/12/9 106/19/16 46/13/10
f 46/13/10 51/21/18 2/14/11
f 106/19/16 14/12/9 107/22/19
f 107/22/19 108/23/20 106/19/16
f 17/20/17 106/19/16 108/23/20
f 108/23/20 107/22/19 16/24/21
f 50/25/22 6/26/23 52/27/24
f 52/27/24 108/23/20 50/25/22
f 16/24/21 50/25/22 108/23/20
f 108/23/20 52/27/24 17/20/17
f 107/22/19 14/12/9 45/17/14
f 45/17/14 49/28/25 107/22/19
f 16/24/21 107/22/19 49/28/25
f 45/17/14 1/18/15 49/28/25
f 109/29/26 19/30/27 55/31/28
f 55/31/28 54/32/29 109/29/26
f 18/33/30 109/29/26 54/32/29
f 54/32/29 55/31/28 4/34/31
f 109/29/26 18/33/30 110/35/32
f 110/35/32 111/36/33 109/29/26
f 19/30/27 109/29/26 111/36/33
f 111/36/33 110/35/32 13/5/5
f 44/4/4 3/6/6 56/37/34
f 56/37/34 111/36/33 44/4/4
f 13/5/5 44/4/4 111/36/33
f 111/36/33 56/37/34 19/30/27
f 110/38/32 18/39/30 53/40/35
f 53/40/35 43/16/13 110/38/32
f 13/8/5 110/38/32 43/16/13
f 53/40/35 1/18/15 43/16/13
f 112/41/36 21/42/37 60/43/38
f 60/43/38 58/44/39 112/41/36
f 20/45/40 112/41/36 58/44/39
f 58/44/39 60/43/38 5/46/41
f 112/41/36 20/45/40 113/47/42
f 113/47/42 114/48/43 112/41/36
f 21/42/37 112/41/36 114/48/43
f 114/48/43 113/47/42 18/49/30
f 54/50/29 4/51/31 59/52/44
f 59/52/44 114/48/43 54/50/29
f 18/49/30 54/50/29 114/48/43
f 114/48/43 59/52/44 21/42/37
f 113/53/42 20/54/40 57/55/45
f 57/55/45 53/40/35 113/53/42
f 18/39/30 113/53/42 53/40/35
f 57/55/45 1/18/15 53/40/35
f 115/56/46 22/57/47 62/58/48
f 62/58/48 50/25/22 115/56/46
f 16/24/21 115/56/46 50/25/22
f 50/25/22 62/58/48 6/26/23
f 115/56/46 16/24/21 116/59/49
f 116/59/49 117/60/50 115/56/46
f 22/57/47 115/56/46 117/60/50
f 117/60/50 116/59/49 20/54/40
f 58/44/39 5/46/41 61/61/51
f 61/61/51 117/62/50 58/44/39
f 20/45/40 58/44/39 117/62/50
f 117/62/50 61/61/51 22/63/47
f 116/59/49 16/24/21 49/28/25
f 49/28/25 57/55/45 116/59/49
f 20/54/40 116/59/49 57/55/45
f 49/28/25 1/18/15 57/55/45
f 118/64/52 24/65/53 65/66/54
f 65/66/54 51/21/18 118/64/52
f 17/20/17 118/64/52 51/21/18
f 51/21/18 65/66/54 2/14/11
f 118/67/52 17/68/17 119/69/55
f 119/69/55 120/70/56 118/67/52
f 24/71/53 118/67/52 120/70/56
f 120/70/56 119/69/55 23/72/57
f 64/73/58 11/74/59 66/75/60
f 66/75/60 120/70/56 64/73/58
f 23/72/57 64/73/58 120/70/56
f 120/70/56 66/75/60 24/71/53
f 63/76/61 23/72/57 119/69/55
f 119/69/55 52/77/24 63/76/61
f 6/78/23 63/76/61 52/77/24
f 52/77/24 119/69/55 17/68/17
f 121/79/62 26/80/63 69/81/64
f 69/81/64 48/3/3 121/79/62
f 15/2/2 121/79/62 48/3/3
f 48/3/3 69/81/64 3/6/6
f 121/82/62 15/83/2 122/84/65
f 122/84/65 123/85/66 121/82/62
f 26/86/63 121/82/62 123/85/66
f 123/85/66 122/84/65 25/87/67
f 68/88/68 7/89/69 70/90/70
f 70/90/70 123/85/66 68/88/68
f 25/87/67 68/88/68 123/85/66
f 123/85/66 70/90/70 26/86/63
f 67/91/71 25/87/67 122/84/65
f 122/84/65 47/92/12 67/91/71
f 2/93/11 67/91/71 47/92/12
f 47/92/12 122/84/65 15/83/2
f 124/94/72 28/95/73 73/96/74
f 73/96/74 55/31/28 124/94/72
f 19/30/27 124/94/72 55/31/28
f 55/31/28 73/96/74 4/34/31
f 124/94/72 19/30/27 125/97/75
f 125/97/75 126/98/76 124/94/72
f 28/95/73 124/94/72 126/98/76
f 126/98/76 125/97/75 27/99/77
f 72/100/78 8/101/79 74/102/80
f 74/102/80 126/98/76 72/100/78
f 27/99/77 72/100/78 126/98/76
f 126/98/76 74/102/80 28/95/73
f 71/103/81 27/99/77 125/97/75
f 125/97/75 56/37/34 71/103/81
f 3/6/6 71/103/81 56/37/34
f 56/37/34 125/97/75 19/30/27
f 127/104/82 30/105/83 78/106/84
f 78/106/84 60/43/38 127/104/82
f 21/42/37 127/104/82 60/43/38
f 60/43/38 78/106/84 5/46/41
f 127/104/82 21/42/37 128/107/85
f 128/107/85 129/108/86 127/104/82
f 30/105/83 127/104/82 129/108/86
f 129/108/86 128/107/85 29/109/87
f 75/110/88 9/111/89 77/112/90
f 77/112/90 129/108/86 75/110/88
f 29/109/87 75/110/88 129/108/86
f 129/108/86 77/112/90 30/105/83
f 76/113/91 29/109/87 128/107/85
f 128/107/85 59/52/44 76/113/91
f 4/51/31 76/113/91 59/52/44
f 59/52/44 128/107/85 21/42/37
f 130/114/92 32/115/93 82/116/94
f 82/116/94 62/117/48 130/114/92
f 22/118/47 130/114/92 62/117/48
f 62/117/48 82/116/94 6/78/23
f 130/114/92 22/118/47 131/119/95
f 131/119/95 132/120/96 130/114/92
f 32/115/93 130/114/92 132/120/96
f 132/120/96 131/119/95 31/121/97
f 79/122/98 10/123/99 81/124/100
f 81/124/100 132/120/96 79/122/98
f 31/121/97 79/122/98 132/120/96
f 132/120/96 81/124/100 32/115/93
f 80/125/101 31/126/97 131/127/95
f 131/127/95 61/61/51 80/125/101
f 5/46/41 80/125/101 61/61/51
f 61/61/51 131/127/95 22/63/47
f 133/128/102 33/129/103 83/130/104
f 83/130/104 68/88/68 133/128/102
f 25/87/67 133/128/102 68/88/68
f 68/88/68 83/130/104 7/89/69
f 133/128/102 25/87/67 134/131/105
f 134/131/105 135/132/106 133/128/102
f 33/129/103 133/128/102 135/132/106
f 135/132/106 134/131/105 24/133/53
f 66/134/60 11/135/59 84/136/107
f 84/136/107 135/132/106 66/134/60
f 24/133/53 66/134/60 135/132/106
f 135/132/106 84/136/107 33/129/103
f 65/137/54 24/133/53 134/131/105
f 134/131/105 67/91/71 65/137/54
f 2/93/11 65/137/54 67/91/71
f 67/91/71 134/131/105 25/87/67
f 136/138/108 34/139/109 85/140/110
f 85/140/110 72/100/78 136/138/108
f 27/99/77 136/138/108 72/100/78
f 72/100/78 85/140/110 8/101/79
f 136/138/108 27/99/77 137/141/111
f 137/141/111 138/142/112 136/138/108
f 34/139/109 136/138/108 138/142/112
f 138/142/112 137/141/111 26/80/63
f 70/90/70 7/89/69 86/143/113
f 86/143/113 138/144/112 70/90/70
f 26/86/63 70/90/70 138/144/112
f 138/144/112 86/143/113 34/145/109
f 69/81/64 26/80/63 137/141/111
f 137/141/111 71/103/81 69/81/64
f 3/6/6 69/81/64 71/103/81
f 71/103/81 137/141/111 27/99/77
f 139/146/114 35/147/115 87/148/116
f 87/148/116 75/149/88 139/146/114
f 29/150/87 139/146/114 75/149/88
f 75/149/88 87/148/116 9/151/89
f 139/152/114 29/153/87 140/154/117
f 140/154/117 141/155/118 139/152/114
f 35/156/115 139/152/114 141/155/118
f 141/155/118 140/154/117 28/95/73
f 74/102/80 8/101/79 88/157/119
f 88/157/119 141/155/118 74/102/80
f 28/95/73 74/102/80 141/155/118
f 141/155/118 88/157/119 35/156/115
f 73/96/74 28/95/73 140/154/117
f 140/154/117 76/158/91 73/96/74
f 4/34/31 73/96/74 76/158/91
f 76/158/91 140/154/117 29/153/87
f 142/159/120 36/160/121 90/161/122
f 90/161/122 79/122/98 142/159/120
f 31/121/97 142/159/120 79/122/98
f 79/122/98 90/161/122 10/123/99
f 142/162/120 31/126/97 143/163/123
f 143/163/123 144/164/124 142/162/120
f 36/165/121 142/162/120 144/164/124
f 144/164/124 143/163/123 30/105/83
f 77/112/90 9/111/89 89/166/125
f 89/166/125 144/164/124 77/112/90
f 30/105/83 77/112/90 144/164/124
f 144/164/124 89/166/125 36/165/121
f 78/106/84 30/105/83 143/163/123
f 143/163/123 80/125/101 78/106/84
f 5/46/41 78/106/84 80/125/101
f 80/125/101 143/163/123 31/126/97
f 145/167/126 37/168/127 92/169/128
f 92/169/128 64/73/58 145/167/126
f 23/72/57 145/167/126 64/73/58
f 64/73/58 92/169/128 11/74/59
f 145/167/126 23/72/57 146/170/129
f 146/170/129 147/171/130 145/167/126
f 37/168/127 145/167/126 147/171/130
f 147/171/130 146/170/129 32/115/93
f 81/124/100 10/123/99 91/172/131
f 91/172/131 147/171/130 81/124/100
f 32/115/93 81/124/100 147/171/130
f 147/171/130 91/172/131 37/168/127
f 82/116/94 32/115/93 146/170/129
f 146/170/129 63/76/61 82/116/94
f 6/78/23 82/116/94 63/76/61
f 63/76/61 146/170/129 23/72/57
f 148/173/132 39/174/133 95/175/134
f 95/175/134 83/130/104 148/173/132
f 33/129/103 148/173/132 83/130/104
f 83/130/104 95/175/134 7/89/69
f 148/173/132 33/129/103 149/176/135
f 149/176/135 150/177/136 148/173/132
f 39/174/133 148/173/132 150/177/136
f 150/177/136 149/176/135 38/178/137
f 94/179/138 12/180/139 96/181/140
f 96/181/140 150/182/136 94/179/138
f 38/183/137 94/179/138 150/182/136
f 150/182/136 96/181/140 39/184/133
f 93/185/141 38/178/137 149/176/135
f 149/176/135 84/136/107 93/185/141
f 11/135/59 93/185/141 84/136/107
f 84/136/107 149/176/135 33/129/103
f 151/186/142 40/187/143 97/188/144
f 97/188/144 85/189/110 151/186/142
f 34/190/109 151/186/142 85/189/110
f 85/189/110 97/188/144 8/191/79
f 151/186/142 34/190/109 152/192/145
f 152/192/145 153/193/146 151/186/142
f 40/187/143 151/186/142 153/193/146
f 153/193/146 152/192/145 39/184/133
f 96/181/140 12/180/139 98/194/147
f 98/194/147 153/193/146 96/181/140
f 39/184/133 96/181/140 153/193/146
f 153/193/146 98/194/147 40/187/143
f 95/175/134 39/174/133 152/195/145
f 152/195/145 86/143/113 95/175/134
f 7/89/69 95/175/134 86/143/113
f 86/143/113 152/195/145 34/145/109
f 154/196/148 41/197/149 99/198/150
f 99/198/150 87/148/116 154/196/148
f 35/147/115 154/196/148 87/148/116
f 87/148/116 99/198/150 9/151/89
f 154/196/148 35/147/115 155/199/151
f 155/199/151 156/200/152 154/196/148
f 41/197/149 154/196/148 156/200/152
f 156/200/152 155/199/151 40/187/143
f 98/194/147 12/180/139 100/201/153
f 100/201/153 156/200/152 98/194/147
f 40/187/143 98/194/147 156/200/152
f 156/200/152 100/201/153 41/197/149
f 97/188/144 40/187/143 155/199/151
f 155/199/151 88/202/119 97/188/144
f 8/191/79 97/188/144 88/202/119
f 88/202/119 155/199/151 35/147/115
f 157/203/154 42/204/155 101/205/156
f 101/205/156 90/161/122 157/203/154
f 36/160/121 157/203/154 90/161/122
f 90/161/122 101/205/156 10/123/99
f 157/206/154 36/207/121 158/208/157
f 158/208/157 159/209/158 157/206/154
f 42/210/155 157/206/154 159/209/158
f 159/209/158 158/208/157 41/197/149
f 100/201/153 12/180/139 102/211/159
f 102/211/159 159/209/158 100/201/153
f 41/197/149 100/201/153 159/209/158
f 159/209/158 102/211/159 42/210/155
f 99/198/150 41/197/149 158/208/157
f 158/208/157 89/212/125 99/198/150
f 9/151/89 99/198/150 89/212/125
f 89/212/125 158/208/157 36/207/121
f 160/213/160 38/214/137 93/215/141
f 93/215/141 92/169/128 160/213/160
f 37/168/127 160/213/160 92/169/128
f 92/169/128 93/215/141 11/74/59
f 160/213/160 37/168/127 161/216/161
f 161/216/161 162/217/162 160/213/160
f 38/214/137 160/213/160 162/217/162
f 162/217/162 161/216/161 42/204/155
f 102/211/159 12/180/139 94/179/138
f 94/179/138 162/218/162 102/211/159
f 42/210/155 102/211/159 162/218/162
f 162/218/162 94/179/138 38/183/137
f 101/205/156 42/204/155 161/216/161
f 161/216/161 91/172/131 101/205/156
f 10/123/99 101/205/156 91/172/131
f 91/172/131 161/216/161 37/168/127
